<?xml version="1.0" encoding="iso-8859-1"?>
<!-- Generator: Adobe Illustrator 22.1.0, SVG Export Plug-In . SVG Version: 6.00 Build 0)  -->
<svg version="1.1" id="Layer_1" xmlns="http://www.w3.org/2000/svg" xmlns:xlink="http://www.w3.org/1999/xlink" x="0px" y="0px"
	 viewBox="0 0 28 18" style="enable-background:new 0 0 28 18;" xml:space="preserve">
<path id="gun_1_" d="M27,2V1H8V0H5v1H3v1H0v1l2.667,1.333L0,5v1c0,0,3,1,3,2s-3,3-3,8v2h9v-1H7.5L7,16l1.826-5.021
	c0.643,0.296,1.757,0.521,3.673,0.521C16.414,11.5,17,10.561,17,10V7h10V4h1V2H27z M6,5H5V2h1V5z M8,5H7V2h1V5z M9,2h1v3H9V2z
	 M16,9.903c-0.115,0.118-0.757,0.597-3.501,0.597c-2.148,0-2.999-0.292-3.326-0.476L10.273,7H12v1v1h2V8h-1V7h3V9.903z"/>
</svg>
