<?xml version="1.0" encoding="UTF-8" standalone="no"?>
<!-- Generator: Adobe Illustrator 22.1.0, SVG Export Plug-In . SVG Version: 6.00 Build 0)  -->

<svg
   version="1.1"
   id="Layer_1"
   x="0px"
   y="0px"
   viewBox="0 0 16.700001 18"
   xml:space="preserve"
   sodipodi:docname="harassment.svg"
   inkscape:version="1.2.2 (732a01da63, 2022-12-09)"
   width="16.700001"
   height="18"
   xmlns:inkscape="http://www.inkscape.org/namespaces/inkscape"
   xmlns:sodipodi="http://sodipodi.sourceforge.net/DTD/sodipodi-0.dtd"
   xmlns="http://www.w3.org/2000/svg"
   xmlns:svg="http://www.w3.org/2000/svg"><defs
   id="defs6" /><sodipodi:namedview
   id="namedview4"
   pagecolor="#ffffff"
   bordercolor="#000000"
   borderopacity="0.25"
   inkscape:showpageshadow="2"
   inkscape:pageopacity="0.0"
   inkscape:pagecheckerboard="0"
   inkscape:deskcolor="#d1d1d1"
   showgrid="false"
   inkscape:lockguides="true"
   showguides="true"
   inkscape:zoom="11.313709"
   inkscape:cx="-5.391689"
   inkscape:cy="-6.4081549"
   inkscape:window-width="1920"
   inkscape:window-height="991"
   inkscape:window-x="-9"
   inkscape:window-y="-9"
   inkscape:window-maximized="1"
   inkscape:current-layer="g2604"><sodipodi:guide
     position="16.041045,3.4253731"
     orientation="0,-1"
     id="guide1857"
     inkscape:locked="true" /></sodipodi:namedview>

<g
   id="g2604"
   transform="scale(1.011167)"
   style="stroke:#000000;stroke-opacity:1"><circle
     style="fill:none;stroke:#000000;stroke-width:1.97791265;stroke-dasharray:none;stroke-opacity:1"
     id="path235"
     cx="8.274375"
     cy="3.480906"
     r="3.2225599" /><path
     style="fill:none;stroke:#000000;stroke-width:1.97791265;stroke-dasharray:none;stroke-opacity:1"
     d="M 5.8837075,6.9030261 C 1.8702784,7.240999 -0.02502181,17.49497 0.2926387,17.545339 c 0.0761776,0.01206 15.9056293,0 15.9056293,0 -0.106129,-1.764099 -0.917136,-3.690865 -1.445966,-5.552512"
     id="path1705"
     sodipodi:nodetypes="cscc" /><path
     style="fill:none;stroke:#000000;stroke-width:1.97791265;stroke-dasharray:none;stroke-opacity:1"
     d="M 2.6833019,17.603177 3.9075536,13.920782"
     id="path1859" /><path
     style="fill:none;stroke:#000000;stroke-width:1.97791265;stroke-dasharray:none;stroke-opacity:1"
     d="m 13.653367,17.545339 -1.28209,-3.672755"
     id="path1861" /><path
     style="fill:none;stroke:#000000;stroke-width:1.97791265;stroke-dasharray:none;stroke-opacity:1"
     d="m 16.270098,6.1643419 -1.108797,1.4794829 c 0.6374,2.3931422 -2.294849,5.0850402 -2.412987,5.0168342 -0.118133,-0.0682 0.787388,-2.290202 0.736165,-2.303927 -0.05122,-0.01378 -1.64931,3.073129 -2.1676,2.8765 C 10.798588,13.036604 12.85261,9.9377693 12.761946,9.8932201 12.671283,9.848664 10.70479,13.468927 10.158099,13.178701 9.6114076,12.888475 12.083656,9.4585091 12.012146,9.3888106 11.940636,9.3191123 10.170567,12.021311 9.757442,11.768869 9.3443158,11.516425 11.3295,8.8355451 11.248715,8.7480736 11.167922,8.6606028 9.5551933,9.5818486 9.2719737,9.0070949 8.9887542,8.4323412 9.1143482,9.248012 10.580713,7.6983556 c 1.46636,-1.5496563 2.494785,-1.4859644 2.494785,-1.4859644 0.500906,-0.7141141 0.690563,-0.7834279 0.9403,-1.3540316"
     id="path1863"
     sodipodi:nodetypes="cczzzzzzzzzzcc" /></g></svg>
