<?xml version="1.0" encoding="utf-8"?>
<!-- Generator: Adobe Illustrator 23.0.2, SVG Export Plug-In . SVG Version: 6.00 Build 0)  -->
<svg version="1.1" id="Layer_1" xmlns="http://www.w3.org/2000/svg" xmlns:xlink="http://www.w3.org/1999/xlink" x="0px" y="0px"
	 viewBox="0 0 287.7344 191.6604" enable-background="new 0 0 287.7344 191.6604" xml:space="preserve">
<g>
	<path d="M113.9723,63.1477c0.1075,0.0957,0.1973,0.17,0.2715,0.2325c0.2422-0.1192,0.6426-0.3448,1.2149-0.7598
		c0.1157-0.085,0.2597-0.1958,0.4277-0.3325c0.5049-0.4112,1.2402-1.0747,2.1626-2.0703c-0.9473-0.354-1.9175-0.7115-2.9126-1.0718
		c-1.5303-0.5542-3.106-1.1104-4.7129-1.6553C111.4831,59.8733,112.9801,62.284,113.9723,63.1477z"/>
	<path d="M155.5143,17.2024c-2.8896-11.9228-14.8208-19.3603-26.8271-16.6425c-5.6665,1.2822-10.3443,4.5991-13.4395,9.0058
		c3.9492,0.5332,13.2998,1.959,22.0157,3.5283C147.5646,14.9495,152.8073,16.2054,155.5143,17.2024z"/>
	<path d="M111.4889,26.3738c9.2329,5.6768,17.2403,12.2163,23.6109,18.585c1.1675-0.0767,2.3437-0.2427,3.521-0.5093
		c6.4258-1.4541,11.5796-5.5239,14.5971-10.8325c-6.3618-1.0752-34.0727-9.4761-42.0522-11.9151
		C111.1115,23.24,111.214,24.804,111.4889,26.3738z"/>
	<path d="M104.8825,15.4309c0,0-3.2842,1.9488-6.3013,4.0264c2.0869,0.9619,4.1299,1.978,6.1275,3.041
		c4.0332-1.3882,6.0468-3.0127,6.0468-3.0127s0.2041,0.0625,0.5738,0.1753c4.8603,1.4834,39.3882,11.9868,42.8457,12.0694
		c0.0893,0.0024,0.1645,0,0.2114-0.0122c1.998-0.5166,2.6152-9.1153,2.1855-11.5811c-0.0297-0.1709-0.2514-0.3579-0.6118-0.5566
		c-4.7392-2.6163-36.0757-7.4224-41.8916-8.1514c-0.1255-0.0156-0.2602-0.0332-0.3618-0.0449
		c-2.9844-0.3496-6.7734-8.9766-23.0078,3.6699C87.5231,17.5266,104.8825,15.4309,104.8825,15.4309z"/>
	<path d="M36.9723,40.9866c-2.7304,2.5845,0.4219,4.2368,4.1827,5.2456c-0.504-2.2139-1.1436-4.3999-1.9576-6.5679
		C38.151,40.1624,37.3302,40.6477,36.9723,40.9866z"/>
	<path d="M52.5417,51.1043c-1.3726-0.3662-2.833-0.4907-4.2398-0.6416c-0.4389-0.0469-0.9297-0.1026-1.4404-0.1631
		c0.2285,1.4673,0.4106,2.9521,0.5513,4.4565c0.6577-0.2353,1.2734-0.5151,1.8164-0.8545c0.9941-0.6206,2.1103-1.2695,2.8784-2.1801
		C52.3083,51.5486,52.4421,51.3362,52.5417,51.1043z"/>
	<path d="M79.236,50.9212c2.7398-0.9976,6.334-1.1358,10.4409-0.6826c0.1524-0.3286,0.3189-0.6529,0.5083-0.9678
		c1.375-2.2891,3.5606-3.9063,6.1524-4.5508c0.7949-0.1992,1.6113-0.2988,2.4258-0.2988c4.5859,0,8.5703,3.1064,9.6914,7.5576
		l0.0273,0.1016l0.0293,0.1103c0.0664,0.2363,0.1602,0.5723,0.2949,0.9961c0.1509,0.4819,0.3692,1.1328,0.6382,1.8667
		c1.9185,0.6343,3.8418,1.3018,5.7505,1.9878c1.4297,0.5137,2.8506,1.0376,4.2549,1.5649c0.331-0.4033,0.6777-0.8408,1.039-1.3164
		c0.3872-0.5088,0.7915-1.062,1.211-1.6596c0.1255-0.1787,0.2495-0.354,0.3779-0.5411c1.8672-2.7158,4.9492-4.3339,8.2481-4.3339
		c2.0292,0,3.9863,0.6074,5.6601,1.7617c2.2012,1.5117,3.6816,3.793,4.168,6.418c0.4658,2.5258-0.0498,5.0766-1.4351,7.2265
		c5.5415,2.1377,9.2031,3.3267,9.5171,2.4277c1.0806-3.0917-4.9717-12.9721-16.0312-23.6313
		c-5.5196-5.3188-12.2818-10.8311-20.0362-15.792c-2.4468-1.5649-4.9956-3.0718-7.6303-4.5034
		c-0.8467-0.4605-1.7007-0.9136-2.566-1.3569c-1.7138-0.878-3.4629-1.7203-5.2451-2.522c-0.6943-0.3125-1.3921-0.6201-2.0962-0.9199
		c-16.1587-6.8765-34.9062-10.2989-54.727-5.9424c-60.667,13.334-40.25,66.25-16.334,68c13.4399,0.9844,23.6484-3.1548,31.5976-8.71
		C67.4142,64.6526,74.2839,52.7244,79.236,50.9212z M7.2555,51.471c0.4649-27.0332,31.8848-31.6026,31.8848-31.6026
		C20.7389,26.2337,17.3971,34.4319,7.2555,51.471z M54.653,55.4617c-2.0015,1.4746-4.4131,2.3858-6.9761,2.8501
		c0.1187,2.2144,0.1695,4.4766,0.1704,6.8027c0.001,2.0987-4.9839,1.7813-4.9843-0.3906c-0.001-2.0625-0.042-4.0757-0.1333-6.0532
		c-3.6661-0.1001-7.3277-0.9453-10.3262-2.3047c-3.0601-1.3872-0.0816-3.1167,2.1338-2.1123c2.1172,0.96,5.1064,1.46,8.0049,1.3594
		c-0.1641-2.0772-0.4004-4.1167-0.7369-6.1255c-4.6318-0.9873-9.4902-2.8735-10.6079-6.8184
		c-0.8867-3.1299,2.1958-5.5971,6.3296-6.9155c-0.7158-1.4932-1.5141-2.9829-2.4258-4.4736
		c-1.3955-2.2823,3.4068-2.9112,4.4278-1.2412c0.9751,1.5947,1.8301,3.1855,2.5981,4.7773
		c4.8911-0.4888,9.8218,0.5723,11.0894,3.8188c0.9048,2.3174-3.9063,1.5518-4.541-0.0742c-0.503-1.2885-2.7281-1.1582-5.1192-0.5156
		c1.2193,3.0361,2.1153,6.0938,2.7603,9.2139c1.0161,0.1499,1.8427,0.248,2.2983,0.3022
		C53.2917,48.1194,61.2604,50.5945,54.653,55.4617z"/>
	<path d="M136.9098,65.2864c2.5039-3.6396,1.5821-8.6191-2.0566-11.1221c-3.6406-2.5048-8.6211-1.5839-11.125,2.0567
		c-0.8057,1.1758-1.5752,2.208-2.3096,3.1308c-0.4077,0.5123-0.8008,0.9815-1.1826,1.42c-0.0591,0.0678-0.1186,0.1367-0.1768,0.2026
		c-0.0849,0.0962-0.1738,0.2017-0.2568,0.2939c-1.2241,1.355-2.2974,2.3296-3.168,2.9673
		c-0.3505,0.2549-0.6484,0.4463-0.9194,0.6084c-1.082,0.648-1.5688,0.6504-1.6704,0.6573c-0.1113-0.0137-0.377,0.0468-1.3867-0.8438
		c-1.4492-1.2656-3.334-4.4629-4.4512-7.2676c-0.104-0.25-0.1982-0.4917-0.293-0.7339c-0.3481-0.8872-0.6337-1.6992-0.8545-2.3735
		c-0.0551-0.1684-0.1123-0.3423-0.1591-0.4912c-0.1426-0.4541-0.2461-0.8125-0.3086-1.043
		c-0.0332-0.1142-0.0528-0.1943-0.0664-0.2431l-0.002-0.0078c0,0-0.0019-0.0079-0.0039-0.0137l-0.0039-0.0176
		c-1.0762-4.2754-5.4141-6.875-9.6934-5.8066c-2.229,0.5551-3.9965,1.9985-5.0371,3.8549
		c-0.3369,0.6011-0.6035,1.2422-0.7773,1.9156c-0.3213,1.247-0.3457,2.5898-0.0117,3.9277v-0.0019
		c0.0674,0.2319,0.645,2.5903,1.8974,5.8266c0.6416,1.6582,1.4566,3.5425,2.4776,5.4985c1.5332,2.8907,3.4883,5.9756,6.4004,8.7012
		c0.4946,0.4678,1.0356,0.9268,1.6142,1.3677c2.7476,2.0947,6.4048,3.7622,10.6592,3.7515c0.0137,0,0.0273,0,0.0391,0
		c0.1733,0,0.3452-0.0196,0.518-0.0254c2.3897-0.0762,4.7466-0.668,6.9961-1.6812c1.585-0.7134,3.1182-1.623,4.5679-2.7075
		c0.8364-0.6231,1.6582-1.3096,2.4727-2.0454c2.3647-2.1353,4.6577-4.7534,6.9863-7.9443c0.3955-0.5425,0.7925-1.1026,1.1904-1.6778
		C136.8468,65.3738,136.8781,65.3323,136.9098,65.2864z"/>
	<path d="M167.0583,67.8118l1.5722,3.4971l-11.5849,5.207c-1.9795-3.0869-5.8955-4.5029-9.4815-3.1875
		c-4.0288,1.478-8.313,2.1162-12.7104,2.1162c-1.1895,0.0029-2.3862-0.0444-3.584-0.1338
		c-1.2852,1.2642-2.5811,2.3897-3.9126,3.3799c-1.7935,1.3428-3.6606,2.3984-5.5576,3.1875
		c-2.4195,1.0059-4.8887,1.5537-7.332,1.6055c-0.128,0.0029-0.2564,0.0176-0.3838,0.0176h-0.0782
		c-5.4707,0-9.6552-2.4219-12.2094-4.4576c-0.5381-0.4287-1.0083-0.8413-1.398-1.2094c-3.3867-3.1651-5.498-6.7764-6.793-9.2139
		c-1.0244-1.9634-1.9531-4.0835-2.7636-6.2358c-0.6748-1.7906-1.2715-3.6021-1.7383-5.3697l-0.0313-0.1093
		c-0.3984-1.5938-0.4062-3.1968-0.0571-4.7203c-1.2153-0.1225-2.3887-0.1977-3.4897-0.1977c-2.2403,0-4.125,0.2754-5.6016,0.8125
		c-1.8184,0.6611-4.5039,3.6445-7.6133,7.0967c-4.9609,5.5097-11.3784,12.6279-20.2793,17.7109
		c-1.041,1.5068-2.0908,3.0557-3.166,4.7022c-7.8965,14.375-0.4765,22.705,6.6445,28.4804
		c0.0718,0.0586,0.1416,0.1143,0.2129,0.1719c0.6573,2.2529,1.3628,5.6631,1.356,9.9053
		c-0.0147,5.455-1.0903,12.3203-5.0859,20.5205c-4.0083,8.1894-11.0259,17.789-23.3589,28.2236
		c-5.273,4.4561-5.9317,12.3428-1.4756,17.6162c4.4585,5.2715,12.3452,5.9317,17.6167,1.4756
		c14.5483-12.2949,23.9692-24.6514,29.6763-36.333c4.1909-8.5469,6.3417-16.6914,7.187-23.9404
		c1.2924,1.6914,2.4785,3.5429,3.5034,5.5664c2.3345,4.6484,3.9306,10.2138,3.9477,17.5381c0,6.33-1.2422,14.0224-4.6338,23.3505
		c-2.3569,6.4883,0.9903,13.6602,7.4786,16.0196c1.4096,0.5127,2.8525,0.7558,4.27,0.7558c5.1069,0.001,9.9013-3.1533,11.748-8.2324
		c4.231-11.6328,6.1382-22.2597,6.1382-31.8935c0.0166-11.4912-2.772-21.4981-7.0386-29.5938
		c-6.4155-12.1943-15.7573-19.9814-23.3086-24.7676c-0.3164-0.2002-0.6259-0.3877-0.9365-0.5771
		c4.7031-5.2217,10.0269-10.0449,15.2212-14.4258c1.3677,0.6514,2.8555,1.3262,4.4502,2.0029
		c3.436,1.4483,7.3716,2.9131,11.666,4.1475l-0.5366,8.0166l4.9375,9.9531l4.6426-10.0957l-0.5713-5.8926
		c3.9087,0.6993,8.0088,1.1338,12.2378,1.1426c0.8608,0,1.7285-0.0244,2.5991-0.0625l2.3789,5.2949l33.4453-15.0312l1.5703,3.4961
		l20.6582-5.2637l-10.7949-24.0195L167.0583,67.8118z"/>
	<path d="M189.901,54.1565c0.4024,0,0.8086-0.1206,1.1617-0.3725L261.193,3.6995c0.8975-0.6436,1.107-1.8916,0.4654-2.7915
		c-0.6416-0.8975-1.8916-1.1064-2.7896-0.4653l-70.1323,50.0869c-0.898,0.6416-1.1069,1.8916-0.4653,2.7895
		C188.6623,53.866,189.277,54.1565,189.901,54.1565z"/>
	<path d="M287.6842,58.8157c-0.247-1.0771-1.3183-1.7515-2.3955-1.5049l-84.0161,19.1934c-1.0771,0.2466-1.7495,1.3198-1.5049,2.397
		c0.2124,0.9253,1.0352,1.5532,1.9473,1.5542c0.1475,0,0.2979-0.0166,0.4478-0.0518l84.0161-19.1924
		C287.2565,60.9646,287.9289,59.8914,287.6842,58.8157z"/>
</g>
</svg>
